<svg xmlns="http://www.w3.org/2000/svg" xmlns:xlink="http://www.w3.org/1999/xlink" width="226" zoomAndPan="magnify" viewBox="0 0 170.25 56.999997" height="75" preserveAspectRatio="xMidYMid meet" version="1.0"><defs><g/><clipPath id="c8332b56c2"><path d="M 3 4.976562 L 50 4.976562 L 50 52 L 3 52 Z M 3 4.976562 " clip-rule="nonzero"/></clipPath><clipPath id="e3e09f3833"><path d="M 1.046875 20.09375 L 52.269531 20.09375 L 52.269531 35.671875 L 1.046875 35.671875 Z M 1.046875 20.09375 " clip-rule="nonzero"/></clipPath><clipPath id="72d518f0b5"><path d="M 60 2 L 169.503906 2 L 169.503906 31 L 60 31 Z M 60 2 " clip-rule="nonzero"/></clipPath><clipPath id="de717f4459"><path d="M 60 24 L 169.503906 24 L 169.503906 53 L 60 53 Z M 60 24 " clip-rule="nonzero"/></clipPath></defs><path stroke-linecap="butt" transform="matrix(0, 0.74671, -0.74671, 0, 57.460491, 4.668237)" fill="none" stroke-linejoin="miter" d="M -0.000359513 0.501605 L 63.434114 0.501605 " stroke="#001127" stroke-width="1" stroke-opacity="1" stroke-miterlimit="4"/><g clip-path="url(#c8332b56c2)"><path fill="#4a6a93" d="M 26.601562 47.816406 C 15.847656 47.816406 7.128906 39.101562 7.128906 28.347656 C 7.128906 28.214844 7.132812 28.085938 7.132812 27.957031 C 5.542969 28.375 4.308594 29.554688 3.445312 31.472656 C 4.972656 42.898438 14.757812 51.710938 26.601562 51.710938 C 38.246094 51.710938 47.898438 43.195312 49.671875 32.050781 C 48.25 32.652344 46.820312 33.148438 45.371094 33.542969 C 43.097656 41.773438 35.554688 47.816406 26.601562 47.816406 Z M 26.601562 8.875 C 35.4375 8.875 42.898438 14.761719 45.277344 22.832031 C 45.96875 23.253906 46.65625 23.710938 47.335938 24.207031 C 48.289062 24.894531 49.136719 25.582031 49.871094 26.21875 C 48.792969 14.3125 38.789062 4.980469 26.601562 4.980469 C 15.015625 4.980469 5.398438 13.414062 3.554688 24.480469 C 4.734375 23.667969 6.183594 23.152344 7.890625 22.9375 C 10.234375 14.816406 17.722656 8.875 26.601562 8.875 " fill-opacity="1" fill-rule="nonzero"/></g><g clip-path="url(#e3e09f3833)"><path fill="#000000" d="M 1.503906 35.667969 C 1.503906 35.667969 2.089844 25.492188 10.160156 27.011719 C 18.230469 28.53125 33.902344 39.527344 52.269531 29.820312 C 52.269531 29.820312 37.878906 12.859375 23.257812 23.738281 C 23.257812 23.738281 35.542969 17.773438 46.300781 28.53125 C 46.300781 28.53125 38.054688 31.75 18.949219 25.472656 C 2.519531 20.078125 -0.25 28.414062 1.503906 35.667969 " fill-opacity="1" fill-rule="nonzero"/></g><path fill="#000000" d="M 10.117188 30.871094 C 16.070312 31.785156 26.25 37.511719 38.285156 36.472656 C 27.582031 36.410156 18.609375 31.53125 13.1875 30.734375 C 12.003906 30.558594 10.988281 30.628906 10.117188 30.871094 " fill-opacity="1" fill-rule="nonzero"/><g fill="#4a6a93" fill-opacity="1"><g transform="translate(65.479029, 26.103397)"><g><path d="M 21.390625 -17.15625 L 21.390625 0 L 16.625 0 L 16.625 -9.46875 L 13.390625 0 L 9.390625 0 L 6.140625 -9.546875 L 6.140625 0 L 1.359375 0 L 1.359375 -17.15625 L 7.125 -17.15625 L 11.4375 -6.015625 L 15.65625 -17.15625 Z M 21.390625 -17.15625 "/></g></g></g><g fill="#4a6a93" fill-opacity="1"><g transform="translate(94.642929, 26.103397)"><g><path d="M 9.59375 0.171875 C 7.988281 0.171875 6.507812 -0.203125 5.15625 -0.953125 C 3.8125 -1.710938 2.742188 -2.757812 1.953125 -4.09375 C 1.171875 -5.4375 0.78125 -6.953125 0.78125 -8.640625 C 0.78125 -10.328125 1.171875 -11.835938 1.953125 -13.171875 C 2.742188 -14.515625 3.8125 -15.5625 5.15625 -16.3125 C 6.507812 -17.0625 7.988281 -17.4375 9.59375 -17.4375 C 11.21875 -17.4375 12.695312 -17.0625 14.03125 -16.3125 C 15.375 -15.5625 16.429688 -14.515625 17.203125 -13.171875 C 17.984375 -11.835938 18.375 -10.328125 18.375 -8.640625 C 18.375 -6.953125 17.984375 -5.4375 17.203125 -4.09375 C 16.429688 -2.757812 15.367188 -1.710938 14.015625 -0.953125 C 12.671875 -0.203125 11.195312 0.171875 9.59375 0.171875 Z M 9.59375 -4.265625 C 10.8125 -4.265625 11.769531 -4.660156 12.46875 -5.453125 C 13.175781 -6.242188 13.53125 -7.304688 13.53125 -8.640625 C 13.53125 -10.003906 13.175781 -11.078125 12.46875 -11.859375 C 11.769531 -12.648438 10.8125 -13.046875 9.59375 -13.046875 C 8.351562 -13.046875 7.382812 -12.648438 6.6875 -11.859375 C 5.988281 -11.078125 5.640625 -10.003906 5.640625 -8.640625 C 5.640625 -7.296875 5.988281 -6.226562 6.6875 -5.4375 C 7.382812 -4.65625 8.351562 -4.265625 9.59375 -4.265625 Z M 9.59375 -4.265625 "/></g></g></g><g fill="#4a6a93" fill-opacity="1"><g transform="translate(120.20788, 26.103397)"><g><path d="M 12.3125 -8.8125 C 13.320312 -8.582031 14.125 -8.082031 14.71875 -7.3125 C 15.3125 -6.539062 15.609375 -5.660156 15.609375 -4.671875 C 15.609375 -3.210938 15.101562 -2.066406 14.09375 -1.234375 C 13.082031 -0.410156 11.671875 0 9.859375 0 L 1.359375 0 L 1.359375 -17.15625 L 9.59375 -17.15625 C 11.34375 -17.15625 12.71875 -16.765625 13.71875 -15.984375 C 14.71875 -15.210938 15.21875 -14.117188 15.21875 -12.703125 C 15.21875 -11.703125 14.953125 -10.863281 14.421875 -10.1875 C 13.890625 -9.507812 13.1875 -9.050781 12.3125 -8.8125 Z M 6.140625 -10.34375 L 8.546875 -10.34375 C 9.742188 -10.34375 10.34375 -10.835938 10.34375 -11.828125 C 10.34375 -12.847656 9.742188 -13.359375 8.546875 -13.359375 L 6.140625 -13.359375 Z M 8.90625 -3.84375 C 10.113281 -3.84375 10.71875 -4.347656 10.71875 -5.359375 C 10.71875 -5.878906 10.554688 -6.273438 10.234375 -6.546875 C 9.921875 -6.828125 9.472656 -6.96875 8.890625 -6.96875 L 6.140625 -6.96875 L 6.140625 -3.84375 Z M 8.90625 -3.84375 "/></g></g></g><g fill="#4a6a93" fill-opacity="1"><g transform="translate(142.952054, 26.103397)"><g><path d="M 6.140625 -17.15625 L 6.140625 0 L 1.359375 0 L 1.359375 -17.15625 Z M 6.140625 -17.15625 "/></g></g></g><g fill="#4a6a93" fill-opacity="1"><g transform="translate(156.869098, 26.103397)"><g><path d="M 6.140625 -3.65625 L 11.46875 -3.65625 L 11.46875 0 L 1.359375 0 L 1.359375 -17.15625 L 6.140625 -17.15625 Z M 6.140625 -3.65625 "/></g></g></g><g clip-path="url(#72d518f0b5)"><path stroke-linecap="butt" transform="matrix(1.368784, 0, 0, 1.368784, 64.40308, 0.38933)" fill="none" stroke-linejoin="miter" d="M 15.626926 5.463139 L 15.626926 17.999926 L 12.145278 17.999926 L 12.145278 11.085144 L 9.779469 17.999926 L 6.862875 17.999926 L 4.479944 11.028068 L 4.479944 17.999926 L 0.995442 17.999926 L 0.995442 5.463139 L 5.207665 5.463139 L 8.355418 13.607913 L 11.434679 5.463139 Z M 28.312112 18.125494 C 27.136342 18.125494 26.057602 17.851528 25.073037 17.300743 C 24.091327 16.747104 23.309383 15.982282 22.735767 15.003426 C 22.162151 14.027423 21.873916 12.920144 21.873916 11.687298 C 21.873916 10.454452 22.162151 9.350028 22.735767 8.371171 C 23.309383 7.395168 24.091327 6.633201 25.073037 6.088123 C 26.057602 5.543045 27.136342 5.26908 28.312112 5.26908 C 29.496443 5.26908 30.578037 5.543045 31.55404 6.088123 C 32.532897 6.633201 33.306279 7.395168 33.874187 8.371171 C 34.442096 9.350028 34.727477 10.454452 34.727477 11.687298 C 34.727477 12.920144 34.442096 14.027423 33.874187 15.003426 C 33.306279 15.982282 32.530043 16.747104 31.545478 17.300743 C 30.563768 17.851528 29.485028 18.125494 28.312112 18.125494 Z M 28.312112 14.886419 C 29.199647 14.886419 29.901684 14.598185 30.418223 14.018861 C 30.931909 13.436684 31.191606 12.660448 31.191606 11.687298 C 31.191606 10.694172 30.931909 9.909375 30.418223 9.335759 C 29.901684 8.759289 29.199647 8.471054 28.312112 8.471054 C 27.413161 8.471054 26.705417 8.759289 26.194585 9.335759 C 25.683753 9.909375 25.429763 10.694172 25.429763 11.687298 C 25.429763 12.671863 25.683753 13.450953 26.194585 14.027423 C 26.705417 14.601038 27.413161 14.886419 28.312112 14.886419 Z M 48.982258 11.561731 C 49.718541 11.730105 50.300718 12.095393 50.731643 12.660448 C 51.165423 13.222648 51.382312 13.864755 51.382312 14.586769 C 51.382312 15.654094 51.014171 16.487407 50.280741 17.092415 C 49.544458 17.697422 48.514233 17.999926 47.184357 17.999926 L 40.977321 17.999926 L 40.977321 5.463139 L 46.990298 5.463139 C 48.268805 5.463139 49.273346 5.74852 50.001068 6.319282 C 50.731643 6.890044 51.096931 7.68911 51.096931 8.719336 C 51.096931 9.455619 50.902872 10.069188 50.517608 10.560043 C 50.135197 11.050899 49.621511 11.384794 48.982258 11.561731 Z M 44.464677 10.443037 L 46.225477 10.443037 C 47.101597 10.443037 47.541084 10.080603 47.541084 9.358589 C 47.541084 8.610891 47.101597 8.237042 46.225477 8.237042 L 44.464677 8.237042 Z M 46.490882 15.191777 C 47.367001 15.191777 47.806488 14.823636 47.806488 14.090206 C 47.806488 13.71065 47.689482 13.419561 47.458323 13.219794 C 47.227165 13.017174 46.898976 12.91729 46.473759 12.91729 L 44.464677 12.91729 L 44.464677 15.191777 Z M 61.079559 5.463139 L 61.079559 17.999926 L 57.595057 17.999926 L 57.595057 5.463139 Z M 71.247684 15.334468 L 75.140281 15.334468 L 75.140281 17.999926 L 67.760328 17.999926 L 67.760328 5.463139 L 71.247684 5.463139 Z M 71.247684 15.334468 " stroke="#001127" stroke-width="0.666997" stroke-opacity="1" stroke-miterlimit="4"/></g><g fill="#4a6a93" fill-opacity="1"><g transform="translate(65.479029, 47.799384)"><g><path d="M 14.921875 -11.4375 C 14.921875 -10.40625 14.679688 -9.460938 14.203125 -8.609375 C 13.722656 -7.753906 13 -7.070312 12.03125 -6.5625 C 11.070312 -6.050781 9.894531 -5.796875 8.5 -5.796875 L 6.140625 -5.796875 L 6.140625 0 L 1.359375 0 L 1.359375 -17.15625 L 8.5 -17.15625 C 9.875 -17.15625 11.046875 -16.910156 12.015625 -16.421875 C 12.984375 -15.941406 13.707031 -15.269531 14.1875 -14.40625 C 14.675781 -13.550781 14.921875 -12.5625 14.921875 -11.4375 Z M 8.03125 -9.59375 C 9.375 -9.59375 10.046875 -10.207031 10.046875 -11.4375 C 10.046875 -12.6875 9.375 -13.3125 8.03125 -13.3125 L 6.140625 -13.3125 L 6.140625 -9.59375 Z M 8.03125 -9.59375 "/></g></g></g><g fill="#4a6a93" fill-opacity="1"><g transform="translate(82.722008, 47.799384)"><g><path d="M 6.140625 -17.15625 L 6.140625 0 L 1.359375 0 L 1.359375 -17.15625 Z M 6.140625 -17.15625 "/></g></g></g><g fill="#4a6a93" fill-opacity="1"><g transform="translate(91.988962, 47.799384)"><g><path d="M 12.21875 -2.796875 L 6.140625 -2.796875 L 5.203125 0 L 0.1875 0 L 6.453125 -17.15625 L 11.953125 -17.15625 L 18.1875 0 L 13.140625 0 Z M 11.03125 -6.453125 L 9.171875 -12 L 7.359375 -6.453125 Z M 11.03125 -6.453125 "/></g></g></g><g fill="#4a6a93" fill-opacity="1"><g transform="translate(112.125671, 47.799384)"><g><path d="M 17.265625 0 L 12.484375 0 L 6.140625 -9.59375 L 6.140625 0 L 1.359375 0 L 1.359375 -17.15625 L 6.140625 -17.15625 L 12.484375 -7.453125 L 12.484375 -17.15625 L 17.265625 -17.15625 Z M 17.265625 0 "/></g></g></g><g fill="#4a6a93" fill-opacity="1"><g transform="translate(132.505561, 47.799384)"><g><path d="M 3.671875 0.1875 C 2.828125 0.1875 2.148438 -0.0390625 1.640625 -0.5 C 1.128906 -0.957031 0.875 -1.546875 0.875 -2.265625 C 0.875 -2.972656 1.128906 -3.5625 1.640625 -4.03125 C 2.148438 -4.507812 2.828125 -4.75 3.671875 -4.75 C 4.503906 -4.75 5.175781 -4.507812 5.6875 -4.03125 C 6.195312 -3.5625 6.453125 -2.972656 6.453125 -2.265625 C 6.453125 -1.566406 6.195312 -0.984375 5.6875 -0.515625 C 5.175781 -0.046875 4.503906 0.1875 3.671875 0.1875 Z M 3.671875 0.1875 "/></g></g></g><g fill="#4a6a93" fill-opacity="1"><g transform="translate(141.602297, 47.799384)"><g><path d="M 6.140625 -17.15625 L 6.140625 0 L 1.359375 0 L 1.359375 -17.15625 Z M 6.140625 -17.15625 "/></g></g></g><g fill="#4a6a93" fill-opacity="1"><g transform="translate(150.869253, 47.799384)"><g><path d="M 8.15625 -17.15625 C 9.957031 -17.15625 11.535156 -16.796875 12.890625 -16.078125 C 14.242188 -15.359375 15.285156 -14.347656 16.015625 -13.046875 C 16.742188 -11.742188 17.109375 -10.257812 17.109375 -8.59375 C 17.109375 -6.9375 16.738281 -5.457031 16 -4.15625 C 15.257812 -2.863281 14.210938 -1.847656 12.859375 -1.109375 C 11.503906 -0.367188 9.9375 0 8.15625 0 L 1.359375 0 L 1.359375 -17.15625 Z M 7.796875 -4.21875 C 9.191406 -4.21875 10.285156 -4.597656 11.078125 -5.359375 C 11.867188 -6.117188 12.265625 -7.195312 12.265625 -8.59375 C 12.265625 -10.007812 11.867188 -11.101562 11.078125 -11.875 C 10.285156 -12.644531 9.191406 -13.03125 7.796875 -13.03125 L 6.140625 -13.03125 L 6.140625 -4.21875 Z M 7.796875 -4.21875 "/></g></g></g><g clip-path="url(#de717f4459)"><path stroke-linecap="butt" transform="matrix(1.368784, 0, 0, 1.368784, 64.40308, 22.085318)" fill="none" stroke-linejoin="miter" d="M 10.901016 9.643477 C 10.901016 10.402591 10.72408 11.093213 10.375915 11.715343 C 10.024897 12.337474 9.496942 12.834037 8.789197 13.207886 C 8.08716 13.581735 7.225309 13.767233 6.206499 13.767233 L 4.479944 13.767233 L 4.479944 17.999433 L 0.995442 17.999433 L 0.995442 5.462645 L 6.206499 5.462645 C 7.213894 5.462645 8.070037 5.642435 8.772074 5.996308 C 9.479819 6.353034 10.010628 6.846743 10.3645 7.474581 C 10.721226 8.10242 10.901016 8.824434 10.901016 9.643477 Z M 5.869749 10.993329 C 6.85146 10.993329 7.345169 10.545281 7.345169 9.643477 C 7.345169 8.730258 6.85146 8.273648 5.869749 8.273648 L 4.479944 8.273648 L 4.479944 10.993329 Z M 17.076661 5.462645 L 17.076661 17.999433 L 13.592159 17.999433 L 13.592159 5.462645 Z M 28.292135 15.956105 L 23.845899 15.956105 L 23.175253 17.999433 L 19.510961 17.999433 L 24.077057 5.462645 L 28.098076 5.462645 L 32.649903 17.999433 L 28.968488 17.999433 Z M 27.418869 13.290646 L 26.069017 9.235382 L 24.736288 13.290646 Z M 46.684941 17.999433 L 43.197585 17.999433 L 38.55729 10.993329 L 38.55729 17.999433 L 35.072788 17.999433 L 35.072788 5.462645 L 38.55729 5.462645 L 43.197585 12.560071 L 43.197585 5.462645 L 46.684941 5.462645 Z M 51.65057 18.142123 C 51.037001 18.142123 50.543292 17.973749 50.166589 17.634145 C 49.79274 17.297396 49.607242 16.86647 49.607242 16.347077 C 49.607242 15.82483 49.79274 15.393904 50.166589 15.048593 C 50.543292 14.703282 51.037001 14.532054 51.65057 14.532054 C 52.255578 14.532054 52.743579 14.703282 53.117429 15.048593 C 53.491278 15.393904 53.676775 15.82483 53.676775 16.347077 C 53.676775 16.855055 53.491278 17.283127 53.117429 17.625584 C 52.743579 17.970895 52.255578 18.142123 51.65057 18.142123 Z M 60.09214 5.462645 L 60.09214 17.999433 L 56.607638 17.999433 L 56.607638 5.462645 Z M 68.339651 5.462645 C 69.655258 5.462645 70.808197 5.72805 71.798469 6.258858 C 72.788741 6.783959 73.550709 7.523096 74.081517 8.470561 C 74.61518 9.418026 74.880584 10.502474 74.880584 11.723905 C 74.880584 12.93392 74.612326 14.01266 74.072956 14.960125 C 73.53644 15.90759 72.771618 16.652435 71.781346 17.191805 C 70.791074 17.731175 69.643843 17.999433 68.339651 17.999433 L 63.376876 17.999433 L 63.376876 5.462645 Z M 68.074247 14.923026 C 69.093057 14.923026 69.892124 14.643352 70.471448 14.089713 C 71.053625 13.530366 71.344713 12.742715 71.344713 11.723905 C 71.344713 10.693679 71.053625 9.897466 70.471448 9.335266 C 69.892124 8.770211 69.093057 8.490538 68.074247 8.490538 L 66.864232 8.490538 L 66.864232 14.923026 Z M 68.074247 14.923026 " stroke="#001127" stroke-width="0.666997" stroke-opacity="1" stroke-miterlimit="4"/></g></svg>